<svg width="12" height="12" viewBox="0 0 17 19" fill="none" xmlns="http://www.w3.org/2000/svg">
<path d="M11.305 18.2554C11.0367 18.2554 10.7683 18.1971 10.5233 18.0688C10.465 18.0338 10.4067 17.9987 10.36 17.9521L8.41167 16.2954L6.49833 17.9521C6.44 17.9987 6.38167 18.0338 6.32333 18.0688C5.86833 18.2904 5.355 18.3137 4.9 18.1154C4.43333 17.9171 4.08333 17.5321 3.92 17.0537L3.54667 15.9338C3.34833 15.3504 3.52333 14.6154 3.955 14.1721L5.90333 12.2587L5.89167 10.5671L2.38 12.0721C1.79667 12.3171 1.19 12.2937 0.723333 11.9787C0.268333 11.6871 0 11.1387 0 10.5087V9.42375C0 8.51375 0.63 7.54542 1.47 7.18375L5.89167 5.28208V3.05375C5.89167 1.91042 6.65 0.67375 7.665 0.18375C8.16667 -0.06125 8.73833 -0.06125 9.24 0.18375C10.255 0.70875 11.0133 1.94542 11.0133 3.05375V5.28208L15.435 7.18375C16.275 7.53375 16.905 8.50208 16.905 9.42375V10.5087C16.905 11.1387 16.6367 11.6871 16.1583 11.9904C15.68 12.2937 15.085 12.3287 14.5017 12.0837L11.0017 10.5787V12.2937L12.9033 14.1954C13.335 14.6271 13.51 15.3738 13.3117 15.9571L12.9383 17.0654C12.775 17.5437 12.425 17.9287 11.9583 18.1154C11.7483 18.2087 11.5267 18.2554 11.305 18.2554ZM8.435 14.5687C8.83167 14.5687 9.21667 14.6971 9.53167 14.9421L11.34 16.4821L11.655 15.3971L9.75333 13.5071C9.45 13.2154 9.25167 12.7254 9.25167 12.2937V10.1354C9.25167 9.61042 9.47333 9.15542 9.87 8.88708C10.2667 8.61875 10.78 8.58375 11.27 8.79375L15.1433 10.4504L15.155 9.42375C15.155 9.20208 14.945 8.87542 14.7467 8.79375L10.1383 6.81042C9.63667 6.60042 9.26333 6.04042 9.26333 5.46875V3.05375C9.26333 2.59875 8.86667 1.95708 8.45833 1.74708C8.03833 1.95708 7.64167 2.58708 7.64167 3.05375V5.46875C7.64167 6.01708 7.28 6.58875 6.76667 6.81042L2.17 8.79375C1.97167 8.87542 1.75 9.21375 1.75 9.42375V10.4504L5.61167 8.80542C6.09 8.59542 6.59167 8.61875 7 8.88708C7.40833 9.15542 7.64167 9.61042 7.64167 10.1471V12.3054C7.64167 12.7254 7.44333 13.2154 7.14 13.5188L5.18 15.4437L5.55333 16.4704L7.315 14.9771C7.64167 14.7087 8.03833 14.5687 8.435 14.5687ZM10.8267 5.20042L10.8383 5.21208C10.8383 5.20042 10.8267 5.20042 10.8267 5.20042Z" fill="#9E9FA1"/>
</svg>
